<?xml version="1.0" standalone="no"?>
<!DOCTYPE svg PUBLIC "-//W3C//DTD SVG 20010904//EN"
 "http://www.w3.org/TR/2001/REC-SVG-20010904/DTD/svg10.dtd">
<svg version="1.0" xmlns="http://www.w3.org/2000/svg"
 width="400.000000pt" height="400.000000pt" viewBox="0 0 400.000000 400.000000"
 preserveAspectRatio="xMidYMid meet">

<g transform="translate(0.000000,400.000000) scale(0.100000,-0.100000)"
fill="#000000" stroke="none">
<path d="M310 2070 l0 -1480 1745 0 1745 0 0 1480 0 1480 -1745 0 -1745 0 0
-1480z m1990 1090 l-21 -90 22 -52 c102 -243 318 -405 576 -434 52 -5 68 -3
100 14 145 76 173 90 173 84 0 -7 -30 -29 -55 -42 -5 -3 -40 -25 -77 -48 -57
-37 -69 -50 -87 -95 -44 -110 -54 -159 -54 -282 -1 -144 18 -218 88 -340 67
-116 91 -138 193 -169 119 -37 119 -37 104 -43 -6 -3 -42 3 -80 12 -100 26
-130 24 -208 -14 -185 -91 -306 -226 -368 -412 -13 -41 -28 -106 -31 -145 l-7
-72 51 -96 c74 -139 63 -142 -22 -4 -55 87 -66 96 -168 133 -102 37 -276 46
-381 20 -89 -21 -161 -52 -230 -99 -91 -61 -103 -76 -127 -156 -12 -41 -26
-84 -31 -95 -15 -35 -12 33 5 95 23 85 19 115 -27 209 -58 118 -188 249 -298
303 -91 43 -170 67 -254 75 -59 5 -65 4 -135 -36 -40 -23 -84 -44 -97 -47 -13
-3 -24 -10 -24 -15 0 -5 -5 -9 -11 -9 -8 0 -8 5 1 15 7 8 19 15 26 15 8 0 14
3 14 8 0 4 34 27 75 52 65 39 77 51 96 95 104 239 71 511 -87 716 -41 53 -45
56 -138 85 -53 16 -96 32 -96 36 0 10 -8 11 80 -9 99 -22 135 -21 195 7 225
104 361 279 410 532 l17 86 -56 105 c-31 57 -56 108 -56 112 0 8 53 -62 61
-80 18 -43 76 -116 98 -124 14 -5 51 -19 81 -30 138 -53 325 -50 469 6 74 28
228 126 242 153 4 8 20 56 35 105 34 110 43 87 14 -35z m-1607 -817 c-7 -2
-19 -2 -25 0 -7 3 -2 5 12 5 14 0 19 -2 13 -5z m2620 -690 c-7 -2 -19 -2 -25
0 -7 3 -2 5 12 5 14 0 19 -2 13 -5z m-1666 -965 c-3 -8 -6 -5 -6 6 -1 11 2 17
5 13 3 -3 4 -12 1 -19z"/>
<path d="M2195 2998 c-108 -107 -254 -168 -405 -168 -89 0 -174 21 -264 66
-64 32 -68 33 -54 12 8 -13 41 -66 73 -118 32 -52 66 -99 74 -105 35 -22 140
-45 209 -45 88 0 197 33 276 84 l52 33 41 139 c23 76 41 139 40 140 -1 1 -20
-16 -42 -38z"/>
<path d="M2247 2928 c-10 -46 -23 -96 -28 -112 -5 -16 -9 -42 -9 -57 0 -30 53
-125 97 -175 73 -81 198 -149 296 -160 50 -6 56 -3 172 63 l120 68 -100 6
c-157 10 -276 67 -385 185 -54 59 -120 175 -120 212 0 10 -6 26 -13 36 -11 15
-15 6 -30 -66z"/>
<path d="M1430 2855 c-1 -188 -103 -374 -263 -480 -58 -39 -147 -75 -187 -76
-25 0 -24 -1 5 -14 17 -8 80 -26 142 -40 l112 -26 38 20 c100 50 197 147 241
239 11 23 28 73 38 111 l18 68 -58 102 c-32 56 -64 114 -72 129 -13 26 -14 25
-14 -33z"/>
<path d="M2111 2676 c-12 -13 -52 -39 -89 -57 -63 -32 -71 -34 -171 -33 -86 0
-115 4 -153 22 -27 12 -48 20 -48 17 0 -2 30 -54 67 -115 43 -72 75 -115 91
-121 42 -16 134 -9 197 15 l60 23 37 133 c21 74 36 135 34 137 -1 2 -13 -8
-25 -21z"/>
<path d="M2177 2643 c-3 -16 -13 -59 -22 -98 -33 -134 -33 -134 25 -193 42
-43 139 -102 168 -102 15 0 233 128 225 133 -4 2 -30 8 -58 11 -132 19 -258
121 -304 249 -6 15 -15 27 -20 27 -5 0 -11 -12 -14 -27z"/>
<path d="M1595 2563 c-27 -135 -58 -197 -133 -265 -45 -40 -111 -78 -138 -78
-13 0 -14 -3 -4 -15 7 -8 20 -15 29 -15 9 0 61 -11 115 -25 54 -14 102 -25
106 -25 16 0 102 85 125 123 39 68 45 91 31 118 -42 82 -117 209 -122 209 -2
0 -6 -12 -9 -27z"/>
<path d="M2788 2447 c-131 -80 -137 -89 -158 -221 -19 -123 15 -262 89 -366
23 -32 36 -39 131 -65 177 -50 169 -50 122 -1 -166 172 -207 427 -102 642 21
43 38 80 37 81 -1 1 -55 -31 -119 -70z"/>
<path d="M1995 2339 c-31 -15 -54 -19 -102 -16 -35 3 -63 2 -63 0 0 -11 134
-223 140 -223 4 0 13 21 20 48 7 26 18 65 25 87 13 42 29 126 23 124 -1 0 -21
-9 -43 -20z"/>
<path d="M2097 2324 c-3 -16 -17 -76 -31 -134 -14 -58 -26 -109 -26 -113 0 -5
15 0 33 11 17 10 74 43 125 73 79 46 89 55 70 60 -47 12 -87 40 -126 85 l-39
46 -6 -28z"/>
<path d="M2491 2265 c-57 -35 -108 -70 -112 -77 -5 -7 -9 -48 -9 -90 0 -60 5
-90 24 -132 24 -54 24 -54 87 -69 35 -8 91 -23 123 -31 32 -9 61 -15 63 -12 2
2 -7 16 -20 32 -53 63 -87 159 -87 245 0 55 24 155 41 174 11 11 12 25 2 25
-5 0 -55 -29 -112 -65z"/>
<path d="M1757 2263 c-9 -42 -44 -92 -77 -111 -16 -9 -30 -21 -30 -27 0 -10
251 -77 259 -70 6 6 -124 228 -136 232 -6 2 -13 -9 -16 -24z"/>
<path d="M1004 2190 c57 -62 92 -120 124 -207 13 -37 17 -79 17 -178 0 -139
-10 -186 -62 -273 -13 -24 -23 -45 -21 -47 2 -2 53 27 113 64 135 83 152 109
162 254 7 108 -10 187 -58 277 -43 81 -60 96 -126 115 -32 8 -78 22 -103 29
-110 33 -109 34 -46 -34z"/>
<path d="M1280 2156 c0 -4 12 -19 26 -34 93 -96 122 -296 62 -419 -6 -13 -9
-26 -5 -29 3 -3 53 22 111 57 113 68 126 85 126 165 0 38 -34 152 -52 176 -11
15 -66 33 -203 68 -16 4 -38 11 -47 15 -10 4 -18 4 -18 1z"/>
<path d="M2200 2091 c-113 -68 -139 -91 -103 -91 10 0 65 -14 123 -30 129 -37
135 -37 116 -7 -26 40 -39 110 -27 153 6 21 9 39 7 41 -1 2 -54 -28 -116 -66z"/>
<path d="M1633 2023 c17 -30 21 -52 21 -110 0 -40 2 -71 5 -69 69 36 230 140
224 145 -10 9 -234 71 -256 71 -14 0 -13 -5 6 -37z"/>
<path d="M2062 1928 c8 -13 41 -69 72 -125 32 -57 62 -103 66 -103 4 0 11 16
15 37 5 26 22 51 61 89 l54 53 -42 11 c-24 6 -59 15 -78 20 -180 49 -167 47
-148 18z"/>
<path d="M1895 1911 c-17 -9 -72 -41 -123 -71 l-92 -54 46 -15 c30 -10 63 -32
94 -63 l48 -48 4 27 c3 16 17 74 32 131 15 57 26 105 24 107 -1 1 -17 -5 -33
-14z"/>
<path d="M1990 1905 c0 -3 -9 -40 -21 -83 -42 -156 -49 -185 -46 -188 2 -2 23
6 47 18 47 23 96 28 144 15 36 -10 35 -5 -46 131 -54 91 -78 125 -78 107z"/>
<path d="M2385 1841 c-66 -40 -145 -149 -145 -199 0 -13 25 -67 55 -120 30
-52 57 -100 59 -106 6 -16 26 14 26 40 0 69 65 188 137 250 30 26 123 74 144
74 36 0 -17 21 -111 44 -58 15 -112 29 -120 31 -8 3 -29 -4 -45 -14z"/>
<path d="M2701 1759 c-55 -24 -142 -90 -179 -135 -46 -55 -87 -140 -107 -219
l-18 -71 27 -42 c14 -23 26 -43 26 -45 0 -2 20 -39 45 -83 l45 -79 0 50 c0 79
27 184 66 265 68 138 218 259 358 291 67 15 60 22 -40 44 -38 8 -95 21 -126
28 -52 13 -61 12 -97 -4z"/>
<path d="M1501 1685 c-65 -36 -109 -66 -100 -69 8 -2 34 -7 59 -11 63 -8 141
-46 194 -95 49 -46 106 -127 106 -153 0 -10 6 -17 13 -17 11 0 68 202 67 241
0 30 -79 107 -142 138 -34 17 -66 31 -72 31 -6 0 -62 -29 -125 -65z"/>
<path d="M1970 1594 c-25 -9 -52 -23 -61 -32 -14 -15 -79 -229 -79 -261 0 -7
15 2 33 20 43 42 139 85 207 94 65 8 158 -7 212 -34 21 -10 38 -15 38 -10 0
22 -137 229 -155 233 -39 11 -151 5 -195 -10z"/>
<path d="M1220 1529 c-47 -27 -101 -57 -120 -66 l-35 -18 100 -6 c117 -7 157
-18 245 -66 121 -67 246 -224 269 -337 11 -53 26 -38 45 46 9 46 22 96 27 112
15 48 11 72 -26 133 -71 120 -164 194 -298 237 -77 26 -113 20 -207 -35z"/>
<path d="M2048 1345 c-72 -15 -182 -64 -221 -101 -17 -16 -34 -58 -60 -153
-21 -71 -37 -132 -37 -133 0 -2 27 22 61 54 96 92 262 158 392 158 83 0 211
-40 293 -91 l36 -22 -18 34 c-9 19 -33 59 -52 89 -95 148 -89 143 -217 166
-93 16 -89 16 -177 -1z"/>
</g>
</svg>
